# File created by Blade
# Date/Time:  Thu Jan 15 17:55:17 2015
#---------------------------------------------------------
:version 1.10
:name HOM
:units
  mass 1.0
  length 1.000000
  angle deg
:documentation
     Acclaim Skeleton File
:root
   axis xyz
   order TX TY TZ RX RY RZ
   position 0.000000 0.000000 0.000000
   orientation 0 0 0
:bonedata
   begin
      id 1
      name Spine_dum
      direction 0.000000 1.000000 0.000000
      length 5.015652
      axis 0.0 0.0 0.0 xyz
   end
   begin
      id 2
      name LeftUpLeg_dum
      direction 1.000000 0.000000 0.000000
      length 4.275145
      axis 0.0 0.0 0.0 xyz
   end
   begin
      id 3
      name RightUpLeg_dum
      direction -1.000000 0.000000 0.000000
      length 4.275145
      axis 0.0 0.0 0.0 xyz
   end
   begin
      id 4
      name Spine
      direction 0.000000 1.000000 0.000000
      length 0.000000
      axis 0.0 0.0 0.0 xyz
      dof rx ry rz
   end
   begin
      id 5
      name Spine_dum1
      direction 0.000000 1.000000 0.000000
      length 15.980521
      axis 0.0 0.0 0.0 xyz
   end
   begin
      id 6
      name Spine_dum2
      direction 0.000000 1.000000 0.000000
      length 12.162712
      axis 0.0 0.0 0.0 xyz
   end
   begin
      id 7
      name Spine_dum3
      direction 0.000000 1.000000 0.000000
      length 12.162712
      axis 0.0 0.0 0.0 xyz
   end
   begin
      id 8
      name Head
      direction 0.000000 1.000000 0.000000
      length 4.527550
      axis 0.0 0.0 0.0 xyz
      dof rx ry rz
   end
   begin
      id 9
      name LeftShoulder
      direction 1.000000 0.000000 0.000000
      length 7.205867
      axis 0.0 0.0 -90.0 xyz
      dof rx ry rz
   end
   begin
      id 10
      name LeftArm
      direction 1.000000 0.000000 0.000000
      length 10.786708
      axis 0.0 0.0 -90.0 xyz
      dof rx ry rz
   end
   begin
      id 11
      name LeftForeArm
      direction 1.000000 0.000000 0.000000
      length 7.946034
      axis 0.0 0.0 -90.0 xyz
      dof rz ry rx
   end
   begin
      id 12
      name LeftHand
      direction 0.000000 0.000000 0.000000
      length 0.000000
      axis 0.0 0.0 -90.0 xyz
      dof rx ry rz
   end
   begin
      id 13
      name LeftHand_dum1
      direction 0.000000 0.000000 0.000000
      length 0.000000
      axis 0.0 0.0 -90.0 xyz
   end
   begin
      id 14
      name LeftHand_dum2
      direction 1.000000 0.000000 0.000000
      length 3.937000
      axis 0.0 0.0 -90.0 xyz
   end
   begin
      id 15
      name LeftHandThumb1
      direction 0.000000 0.000000 1.000000
      length 3.937000
      axis 0.0 0.0 -90.0 xyz
      dof rx ry rz
   end
   begin
      id 16
      name RightShoulder
      direction -1.000000 0.000000 0.000000
      length 7.205867
      axis 0.0 0.0 90.0 xyz
      dof rx ry rz
   end
   begin
      id 17
      name RightArm
      direction -1.000000 0.000000 0.000000
      length 10.786708
      axis 0.0 0.0 90.0 xyz
      dof rx ry rz
   end
   begin
      id 18
      name RightForeArm
      direction -1.000000 0.000000 0.000000
      length 7.946034
      axis 0.0 0.0 90.0 xyz
      dof rz ry rx
   end
   begin
      id 19
      name RightHand
      direction 0.000000 0.000000 0.000000
      length 0.000000
      axis 0.0 0.0 90.0 xyz
      dof rx ry rz
   end
   begin
      id 20
      name RightHand_dum1
      direction 0.000000 0.000000 0.000000
      length 0.000000
      axis 0.0 0.0 90.0 xyz
   end
   begin
      id 21
      name RightHand_dum2
      direction -1.000000 0.000000 0.000000
      length 3.937000
      axis 0.0 0.0 90.0 xyz
   end
   begin
      id 22
      name RightHandThumb1
      direction 0.000000 0.000000 1.000000
      length 3.937000
      axis 0.0 0.0 90.0 xyz
      dof rx ry rz
   end
   begin
      id 23
      name LeftUpLeg
      direction 0.000000 -1.000000 0.000000
      length 17.046659
      axis 0.0 0.0 0.0 xyz
      dof rx ry rz
   end
   begin
      id 24
      name LeftLeg
      direction 0.000000 -1.000000 0.000000
      length 17.458438
      axis 0.0 0.0 0.0 xyz
      dof rx ry rz
   end
   begin
      id 25
      name LeftFoot
      direction 0.000000 -0.258819 0.965926
      length 5.099406
      axis 15.0 0.0 0.0 xyz
      dof rx ry rz
   end
   begin
      id 26
      name LeftToeBase
      direction 0.000000 0.000000 1.000000
      length 2.952750
      axis 0.0 0.0 0.0 xyz
      dof rx ry rz
   end
   begin
      id 27
      name RightUpLeg
      direction 0.000000 -1.000000 0.000000
      length 17.046659
      axis 0.0 0.0 0.0 xyz
      dof rx ry rz
   end
   begin
      id 28
      name RightLeg
      direction 0.000000 -1.000000 0.000000
      length 17.458438
      axis 0.0 0.0 0.0 xyz
      dof rx ry rz
   end
   begin
      id 29
      name RightFoot
      direction 0.000000 -0.258819 0.965926
      length 5.099406
      axis 15.0 0.0 0.0 xyz
      dof rx ry rz
   end
   begin
      id 30
      name RightToeBase
      direction 0.000000 0.000000 1.000000
      length 2.952750
      axis 0.0 0.0 0.0 xyz
      dof rx ry rz
   end
:hierarchy
   begin
      root Spine_dum LeftUpLeg_dum RightUpLeg_dum
      Spine_dum Spine
      LeftUpLeg_dum LeftUpLeg
      RightUpLeg_dum RightUpLeg
      Spine Spine_dum1 Spine_dum2 Spine_dum3
      Spine_dum1 Head
      Spine_dum2 LeftShoulder
      Spine_dum3 RightShoulder
      LeftShoulder LeftArm
      LeftArm LeftForeArm
      LeftForeArm LeftHand
      LeftHand LeftHand_dum1 LeftHand_dum2
      LeftHand_dum1 LeftHandThumb1
      RightShoulder RightArm
      RightArm RightForeArm
      RightForeArm RightHand
      RightHand RightHand_dum1 RightHand_dum2
      RightHand_dum1 RightHandThumb1
      LeftUpLeg LeftLeg
      LeftLeg LeftFoot
      LeftFoot LeftToeBase
      RightUpLeg RightLeg
      RightLeg RightFoot
      RightFoot RightToeBase
   end

# File created by Blade
# Date/Time:  Thu Jan 15 17:55:09 2015
# Frame Rate: 120.000 fps
#------------------------------------------------------
:FULLY-SPECIFIED
:DEGREES
1044
root 1.277486 34.806863 -12.224608 13.761663 -16.882424 -14.551538
Spine -6.196713 -14.665296 -23.057859
Head -9.071719 3.024666 37.799766
LeftShoulder -34.769325 -6.866154 8.007277
LeftArm -4.314992 -47.565062 -37.113168
LeftForeArm -0.000000 26.074807 2.800537
LeftHand 6.138229 -0.000000 22.954913
LeftHandThumb1 -26.253704 33.147579 0.000000
RightShoulder -2.993246 32.393093 -32.096310
RightArm 10.243402 45.169120 8.534760
RightForeArm -0.000000 -38.931312 19.973893
RightHand -2.026362 0.000000 -18.236770
RightHandThumb1 -24.326973 -32.862282 -0.000000
LeftUpLeg 2.807816 24.087681 29.935638
LeftLeg -1.506880 -0.000000 0.000000
LeftFoot -22.475885 9.083772 -23.416173
LeftToeBase 27.751405 -0.000000 -0.000000
RightUpLeg -4.674760 0.818477 16.516941
RightLeg -7.398430 -0.000000 0.000000
RightFoot -14.715814 -26.903158 8.246002
RightToeBase 26.246769 -0.000000 -0.000000
1045
root 1.277952 34.807502 -12.197295 13.784327 -16.774820 -14.519723
Spine -6.246732 -14.707292 -23.103114
Head -9.209169 3.034013 37.841256
LeftShoulder -34.858945 -6.903686 7.832727
LeftArm -4.482716 -47.505723 -37.419782
LeftForeArm -0.000000 26.139439 2.791462
LeftHand 6.011653 -0.000000 22.687148
LeftHandThumb1 -26.253704 33.147579 0.000000
RightShoulder -3.098538 32.314075 -32.113855
RightArm 10.092862 45.053101 8.305999
RightForeArm -0.000000 -38.909604 19.977799
RightHand -1.965696 -0.000000 -17.556908
RightHandThumb1 -24.326973 -32.862282 -0.000000
LeftUpLeg 2.761536 24.045117 29.886094
LeftLeg -1.539582 -0.000000 0.000000
LeftFoot -22.428043 9.128465 -23.311172
LeftToeBase 27.677812 -0.000000 -0.000000
RightUpLeg -4.635807 0.795380 16.490517
RightLeg -7.486490 -0.000000 0.000000
RightFoot -14.725512 -26.993254 8.284973
RightToeBase 26.227676 -0.000000 -0.000000
1046
root 1.282678 34.808220 -12.168261 13.803484 -16.664650 -14.497353
Spine -6.301560 -14.730230 -23.098673
Head -9.340158 3.019599 37.857493
LeftShoulder -34.932101 -6.935305 7.655055
LeftArm -4.671322 -47.478986 -37.682120
LeftForeArm 0.000000 26.206966 2.755970
LeftHand 5.816335 -0.000000 22.405698
LeftHandThumb1 -26.253704 33.147579 0.000000
RightShoulder -3.226547 32.258716 -32.161656
RightArm 9.976161 44.908969 8.141050
RightForeArm -0.000000 -39.039454 19.915821
RightHand -2.123318 -0.000000 -17.451653
RightHandThumb1 -24.326973 -32.862282 -0.000000
LeftUpLeg 2.729555 24.020849 29.846111
LeftLeg -1.584945 -0.000000 0.000000
LeftFoot -22.416552 9.091693 -23.299734
LeftToeBase 27.685387 -0.000000 -0.000000
RightUpLeg -4.571793 0.837626 16.455201
RightLeg -7.611646 -0.000000 0.000000
RightFoot -14.715502 -27.145925 8.340449
RightToeBase 26.161853 -0.000000 -0.000000
1047
root 1.293618 34.809940 -12.138241 13.829217 -16.532888 -14.435425
Spine -6.376371 -14.776853 -23.106447
Head -9.440448 3.008943 37.902392
LeftShoulder -35.016646 -6.918655 7.499720
LeftArm -4.845063 -47.574444 -37.961452
LeftForeArm 0.000000 26.289288 2.731722
LeftHand 5.706940 -0.000000 22.093370
LeftHandThumb1 -26.253704 33.147579 0.000000
RightShoulder -3.336836 32.175752 -32.170702
RightArm 9.856501 44.790718 7.982117
RightForeArm -0.000000 -39.240683 19.802755
RightHand -2.092282 -0.000000 -17.372909
RightHandThumb1 -24.326973 -32.862282 -0.000000
LeftUpLeg 2.661472 23.990507 29.748907
LeftLeg -1.636730 -0.000000 0.000000
LeftFoot -22.376672 9.035688 -23.299783
LeftToeBase 27.656974 -0.000000 -0.000000
RightUpLeg -4.550388 0.803830 16.388579
RightLeg -7.702742 -0.000000 0.000000
RightFoot -14.734762 -27.251163 8.436694
RightToeBase 26.037812 -0.000000 -0.000000
1048
root 1.310433 34.813142 -12.111118 13.888239 -16.393810 -14.350820
Spine -6.482710 -14.845086 -23.088033
Head -9.570923 2.970653 37.902086
LeftShoulder -35.066046 -7.023281 7.388340
LeftArm -5.220690 -47.496709 -38.020491
LeftForeArm 0.000000 26.175658 2.731199
LeftHand 5.583234 -0.000000 21.734744
LeftHandThumb1 -26.253704 33.147579 0.000000
RightShoulder -3.439378 32.143696 -32.181440
RightArm 9.683243 44.635155 7.782489
RightForeArm -0.000000 -39.111996 19.786424
RightHand -2.175217 -0.000000 -17.223549
RightHandThumb1 -24.326973 -32.862282 -0.000000
LeftUpLeg 2.535074 23.935412 29.602870
LeftLeg -1.676175 -0.000000 0.000000
LeftFoot -22.348784 8.996078 -23.311765
LeftToeBase 27.650356 -0.000000 -0.000000
RightUpLeg -4.598039 0.700026 16.303730
RightLeg -7.752637 -0.000000 0.000000
RightFoot -14.753901 -27.292763 8.439393
RightToeBase 26.030911 -0.000000 -0.000000
1049
root 1.332119 34.816402 -12.079274 13.925486 -16.262642 -14.277407
Spine -6.582998 -14.871540 -23.033820
Head -9.702353 2.940119 37.911900
LeftShoulder -35.114515 -7.030848 7.225060
LeftArm -5.454690 -47.454274 -38.161214
LeftForeArm -0.000000 25.948527 2.651811
LeftHand 5.549001 -0.000000 21.552175
LeftHandThumb1 -26.253704 33.147579 0.000000
RightShoulder -3.562064 32.102406 -32.208971
RightArm 9.512764 44.612381 7.678343
RightForeArm -0.000000 -39.230587 19.788045
RightHand -2.064390 -0.000000 -17.392168
RightHandThumb1 -24.326973 -32.862282 -0.000000
LeftUpLeg 2.461156 23.884409 29.475441
LeftLeg -1.742499 -0.000000 0.000000
LeftFoot -22.308921 8.931150 -23.295409
LeftToeBase 27.645603 -0.000000 -0.000000
RightUpLeg -4.619131 0.553478 16.226008
RightLeg -7.798059 -0.000000 0.000000
RightFoot -14.775791 -27.302819 8.456653
RightToeBase 26.000585 -0.000000 -0.000000
1050
root 1.357178 34.818036 -12.043869 13.942855 -16.178001 -14.213583
Spine -6.684340 -14.828185 -22.944746
Head -9.853865 2.907933 37.884855
LeftShoulder -35.176670 -7.053868 7.050195
LeftArm -5.708217 -47.533350 -38.228960
LeftForeArm -0.000000 25.839060 2.654644
LeftHand 5.360471 -0.000000 21.131198
LeftHandThumb1 -26.253704 33.147579 0.000000
RightShoulder -3.719572 32.078418 -32.255053
RightArm 9.359565 44.456328 7.568712
RightForeArm -0.000000 -39.171967 19.729692
RightHand -2.077870 -0.000000 -17.938885
RightHandThumb1 -24.326973 -32.862282 -0.000000
LeftUpLeg 2.463551 23.878200 29.365399
LeftLeg -1.845707 -0.000000 0.000000
LeftFoot -22.283945 8.845365 -23.266845
LeftToeBase 27.670705 -0.000000 -0.000000
RightUpLeg -4.604483 0.505891 16.130463
RightLeg -7.844341 -0.000000 0.000000
RightFoot -14.804035 -27.384599 8.403336
RightToeBase 26.128827 -0.000000 -0.000000
1051
root 1.386287 34.821177 -12.005204 13.971603 -16.091327 -14.137588
Spine -6.834766 -14.807347 -22.833688
Head -9.951662 2.872110 37.846740
LeftShoulder -35.234405 -7.040761 6.920440
LeftArm -6.001657 -47.524758 -38.304641
LeftForeArm -0.000000 25.466792 2.640470
LeftHand 5.238194 0.000000 20.936320
LeftHandThumb1 -26.253704 33.147579 0.000000
RightShoulder -3.849640 32.072166 -32.271286
RightArm 9.232427 44.356072 7.509130
RightForeArm 0.000000 -39.431134 19.699749
RightHand -2.153644 -0.000000 -17.311717
RightHandThumb1 -24.326973 -32.862282 -0.000000
LeftUpLeg 2.451333 23.867449 29.230115
LeftLeg -1.944737 -0.000000 0.000000
LeftFoot -22.241679 8.772054 -23.238846
LeftToeBase 27.619406 -0.000000 -0.000000
RightUpLeg -4.590953 0.477845 16.010976
RightLeg -7.914876 -0.000000 0.000000
RightFoot -14.825293 -27.458222 8.505112
RightToeBase 26.016274 -0.000000 -0.000000
1052
root 1.421094 34.826174 -11.963640 14.001619 -15.997165 -14.039922
Spine -7.001008 -14.773929 -22.712462
Head -10.024357 2.873875 37.818213
LeftShoulder -35.293909 -7.023214 6.781517
LeftArm -6.295769 -47.691321 -38.323483
LeftForeArm -0.000000 25.337451 2.692631
LeftHand 4.971268 -0.000000 20.510875
LeftHandThumb1 -26.253704 33.147579 0.000000
RightShoulder -4.000894 31.951615 -32.248483
RightArm 9.165622 44.285975 7.437269
RightForeArm -0.000000 -39.547859 19.629530
RightHand -1.965822 -0.000000 -17.418099
RightHandThumb1 -24.326973 -32.862282 -0.000000
LeftUpLeg 2.430212 23.822489 29.055454
LeftLeg -2.055347 -0.000000 0.000000
LeftFoot -22.205217 8.718719 -23.233388
LeftToeBase 27.586678 -0.000000 -0.000000
RightUpLeg -4.601744 0.331304 15.877280
RightLeg -7.950181 -0.000000 0.000000
RightFoot -14.865266 -27.418847 8.553406
RightToeBase 26.074886 -0.000000 -0.000000
1053
root 1.460347 34.831071 -11.922199 13.976498 -15.907780 -13.929599
Spine -7.104383 -14.709648 -22.605536
Head -10.113402 2.839823 37.790824
LeftShoulder -35.366665 -7.048418 6.710386
LeftArm -6.594291 -47.679875 -38.351777
LeftForeArm -0.000000 24.907934 2.718042
LeftHand 4.765995 -0.000000 20.169692
LeftHandThumb1 -26.253704 33.147579 0.000000
RightShoulder -4.166297 31.951985 -32.217572
RightArm 9.040796 44.103331 7.337604
RightForeArm -0.000000 -39.694276 19.576640
RightHand -1.987201 -0.000000 -17.474339
RightHandThumb1 -24.326973 -32.862282 -0.000000
LeftUpLeg 2.455531 23.713840 28.877479
LeftLeg -2.163600 -0.000000 0.000000
LeftFoot -22.197555 8.714499 -23.216399
LeftToeBase 27.556218 -0.000000 -0.000000
RightUpLeg -4.583487 0.143543 15.731738
RightLeg -7.954424 -0.000000 0.000000
RightFoot -14.902932 -27.386310 8.488688
RightToeBase 26.223322 -0.000000 -0.000000
1054
root 1.500352 34.836434 -11.878335 13.971863 -15.794133 -13.822731
Spine -7.258257 -14.677057 -22.449151
Head -10.130024 2.792026 37.770285
LeftShoulder -35.415233 -6.963003 6.606575
LeftArm -6.851761 -47.652163 -38.406690
LeftForeArm -0.000000 24.138066 2.719392
LeftHand 4.752852 -0.000000 19.773829
LeftHandThumb1 -26.253704 33.147579 0.000000
RightShoulder -4.306503 31.889595 -32.244285
RightArm 8.876398 43.985771 7.289280
RightForeArm -0.000000 -39.865463 19.529154
RightHand -2.121059 -0.000000 -17.279906
RightHandThumb1 -24.326973 -32.862282 -0.000000
LeftUpLeg 2.446527 23.593124 28.697550
LeftLeg -2.256596 -0.000000 0.000000
LeftFoot -22.183132 8.701154 -23.183838
LeftToeBase 27.499063 -0.000000 -0.000000
RightUpLeg -4.560498 0.022111 15.578586
RightLeg -7.997989 -0.000000 0.000000
RightFoot -14.935326 -27.410515 8.538950
RightToeBase 26.172270 -0.000000 -0.000000
